<mxfile host="app.diagrams.net" agent="Mozilla/5.0 (Windows NT 10.0; Win64; x64) AppleWebKit/537.36 (KHTML, like Gecko) Chrome/135.0.0.0 Safari/537.36 Edg/135.0.0.0" version="26.1.3">
  <diagram name="Página-1" id="6bosSxrM0qYee-80OabL">
    <mxGraphModel dx="1042" dy="1734" grid="1" gridSize="10" guides="1" tooltips="1" connect="1" arrows="1" fold="1" page="1" pageScale="1" pageWidth="827" pageHeight="1169" math="0" shadow="0">
      <root>
        <mxCell id="0" />
        <mxCell id="1" parent="0" />
        <mxCell id="wyoGJI5phzZIUJ4gvNs1-5" style="edgeStyle=orthogonalEdgeStyle;rounded=0;orthogonalLoop=1;jettySize=auto;html=1;entryX=0;entryY=0.5;entryDx=0;entryDy=0;" edge="1" parent="1" target="wyoGJI5phzZIUJ4gvNs1-8">
          <mxGeometry relative="1" as="geometry">
            <mxPoint x="410" y="160" as="sourcePoint" />
            <mxPoint x="430" y="400" as="targetPoint" />
            <Array as="points">
              <mxPoint x="410" y="370" />
            </Array>
          </mxGeometry>
        </mxCell>
        <mxCell id="wyoGJI5phzZIUJ4gvNs1-10" style="edgeStyle=orthogonalEdgeStyle;rounded=0;orthogonalLoop=1;jettySize=auto;html=1;exitX=0.5;exitY=1;exitDx=0;exitDy=0;entryX=0;entryY=0.5;entryDx=0;entryDy=0;" edge="1" parent="1">
          <mxGeometry relative="1" as="geometry">
            <mxPoint x="400" y="160" as="sourcePoint" />
            <mxPoint x="600" y="230" as="targetPoint" />
            <Array as="points">
              <mxPoint x="407" y="160" />
              <mxPoint x="407" y="230" />
            </Array>
          </mxGeometry>
        </mxCell>
        <mxCell id="wyoGJI5phzZIUJ4gvNs1-14" style="edgeStyle=orthogonalEdgeStyle;rounded=0;orthogonalLoop=1;jettySize=auto;html=1;entryX=0.5;entryY=0;entryDx=0;entryDy=0;" edge="1" parent="1" source="wyoGJI5phzZIUJ4gvNs1-2" target="wyoGJI5phzZIUJ4gvNs1-13">
          <mxGeometry relative="1" as="geometry" />
        </mxCell>
        <mxCell id="wyoGJI5phzZIUJ4gvNs1-2" value="INICIO" style="ellipse;whiteSpace=wrap;html=1;" vertex="1" parent="1">
          <mxGeometry x="350" y="-80" width="120" height="80" as="geometry" />
        </mxCell>
        <mxCell id="wyoGJI5phzZIUJ4gvNs1-17" style="edgeStyle=orthogonalEdgeStyle;rounded=0;orthogonalLoop=1;jettySize=auto;html=1;entryX=0;entryY=0.5;entryDx=0;entryDy=0;" edge="1" parent="1" source="wyoGJI5phzZIUJ4gvNs1-8" target="wyoGJI5phzZIUJ4gvNs1-16">
          <mxGeometry relative="1" as="geometry" />
        </mxCell>
        <mxCell id="wyoGJI5phzZIUJ4gvNs1-8" value="Registro" style="rounded=0;whiteSpace=wrap;html=1;" vertex="1" parent="1">
          <mxGeometry x="610" y="340" width="120" height="60" as="geometry" />
        </mxCell>
        <mxCell id="wyoGJI5phzZIUJ4gvNs1-19" style="edgeStyle=orthogonalEdgeStyle;rounded=0;orthogonalLoop=1;jettySize=auto;html=1;exitX=1;exitY=0.5;exitDx=0;exitDy=0;entryX=0.5;entryY=0;entryDx=0;entryDy=0;" edge="1" parent="1" source="wyoGJI5phzZIUJ4gvNs1-9" target="wyoGJI5phzZIUJ4gvNs1-18">
          <mxGeometry relative="1" as="geometry">
            <mxPoint x="790" y="245" as="sourcePoint" />
            <mxPoint x="1170" y="215" as="targetPoint" />
          </mxGeometry>
        </mxCell>
        <mxCell id="wyoGJI5phzZIUJ4gvNs1-9" value="Login" style="rounded=0;whiteSpace=wrap;html=1;" vertex="1" parent="1">
          <mxGeometry x="600" y="200" width="120" height="60" as="geometry" />
        </mxCell>
        <mxCell id="wyoGJI5phzZIUJ4gvNs1-11" value="Botón: Iniciar Sesión" style="text;html=1;align=center;verticalAlign=middle;whiteSpace=wrap;rounded=0;" vertex="1" parent="1">
          <mxGeometry x="440" y="200" width="140" height="30" as="geometry" />
        </mxCell>
        <mxCell id="wyoGJI5phzZIUJ4gvNs1-12" value="Botón: Registrarse" style="text;html=1;align=center;verticalAlign=middle;whiteSpace=wrap;rounded=0;" vertex="1" parent="1">
          <mxGeometry x="440" y="330" width="140" height="30" as="geometry" />
        </mxCell>
        <mxCell id="wyoGJI5phzZIUJ4gvNs1-13" value="Landing Page" style="rounded=0;whiteSpace=wrap;html=1;" vertex="1" parent="1">
          <mxGeometry x="350" y="100" width="120" height="60" as="geometry" />
        </mxCell>
        <mxCell id="wyoGJI5phzZIUJ4gvNs1-16" value="Login" style="rounded=0;whiteSpace=wrap;html=1;" vertex="1" parent="1">
          <mxGeometry x="860" y="340" width="120" height="60" as="geometry" />
        </mxCell>
        <mxCell id="wyoGJI5phzZIUJ4gvNs1-21" style="edgeStyle=orthogonalEdgeStyle;rounded=0;orthogonalLoop=1;jettySize=auto;html=1;" edge="1" parent="1" source="wyoGJI5phzZIUJ4gvNs1-18" target="wyoGJI5phzZIUJ4gvNs1-20">
          <mxGeometry relative="1" as="geometry" />
        </mxCell>
        <mxCell id="wyoGJI5phzZIUJ4gvNs1-24" style="edgeStyle=orthogonalEdgeStyle;rounded=0;orthogonalLoop=1;jettySize=auto;html=1;entryX=0.5;entryY=0;entryDx=0;entryDy=0;" edge="1" parent="1" source="wyoGJI5phzZIUJ4gvNs1-18" target="wyoGJI5phzZIUJ4gvNs1-23">
          <mxGeometry relative="1" as="geometry" />
        </mxCell>
        <mxCell id="wyoGJI5phzZIUJ4gvNs1-18" value="¿Usuario ha completado el onboarding?" style="rhombus;whiteSpace=wrap;html=1;" vertex="1" parent="1">
          <mxGeometry x="1160" y="390" width="130" height="130" as="geometry" />
        </mxCell>
        <mxCell id="wyoGJI5phzZIUJ4gvNs1-53" style="edgeStyle=orthogonalEdgeStyle;rounded=0;orthogonalLoop=1;jettySize=auto;html=1;entryX=0.5;entryY=0;entryDx=0;entryDy=0;" edge="1" parent="1" source="wyoGJI5phzZIUJ4gvNs1-20" target="wyoGJI5phzZIUJ4gvNs1-52">
          <mxGeometry relative="1" as="geometry" />
        </mxCell>
        <mxCell id="wyoGJI5phzZIUJ4gvNs1-20" value="Botones: Cerrar sesión | Editar documentos" style="rounded=0;whiteSpace=wrap;html=1;" vertex="1" parent="1">
          <mxGeometry x="1310" y="920" width="120" height="60" as="geometry" />
        </mxCell>
        <mxCell id="wyoGJI5phzZIUJ4gvNs1-22" value="Si" style="text;html=1;align=center;verticalAlign=middle;whiteSpace=wrap;rounded=0;" vertex="1" parent="1">
          <mxGeometry x="1310" y="420" width="60" height="30" as="geometry" />
        </mxCell>
        <mxCell id="wyoGJI5phzZIUJ4gvNs1-29" style="edgeStyle=orthogonalEdgeStyle;rounded=0;orthogonalLoop=1;jettySize=auto;html=1;entryX=0.5;entryY=0;entryDx=0;entryDy=0;" edge="1" parent="1" source="wyoGJI5phzZIUJ4gvNs1-23" target="wyoGJI5phzZIUJ4gvNs1-26">
          <mxGeometry relative="1" as="geometry" />
        </mxCell>
        <mxCell id="wyoGJI5phzZIUJ4gvNs1-23" value="¿Ha iniciado el onboarding?" style="rhombus;whiteSpace=wrap;html=1;" vertex="1" parent="1">
          <mxGeometry x="920" y="497.5" width="120" height="115" as="geometry" />
        </mxCell>
        <mxCell id="wyoGJI5phzZIUJ4gvNs1-25" value="No" style="text;html=1;align=center;verticalAlign=middle;whiteSpace=wrap;rounded=0;" vertex="1" parent="1">
          <mxGeometry x="990" y="420" width="60" height="30" as="geometry" />
        </mxCell>
        <mxCell id="wyoGJI5phzZIUJ4gvNs1-26" value="Botones: Cerrar sesión | Continuar onboarding" style="rounded=0;whiteSpace=wrap;html=1;" vertex="1" parent="1">
          <mxGeometry x="1100" y="650" width="120" height="60" as="geometry" />
        </mxCell>
        <mxCell id="wyoGJI5phzZIUJ4gvNs1-27" value="Botones: Cerrar sesión | Iniciar onboarding" style="rounded=0;whiteSpace=wrap;html=1;" vertex="1" parent="1">
          <mxGeometry x="750" y="650" width="120" height="60" as="geometry" />
        </mxCell>
        <mxCell id="wyoGJI5phzZIUJ4gvNs1-28" style="edgeStyle=orthogonalEdgeStyle;rounded=0;orthogonalLoop=1;jettySize=auto;html=1;entryX=0.447;entryY=-0.03;entryDx=0;entryDy=0;entryPerimeter=0;" edge="1" parent="1" source="wyoGJI5phzZIUJ4gvNs1-23" target="wyoGJI5phzZIUJ4gvNs1-27">
          <mxGeometry relative="1" as="geometry" />
        </mxCell>
        <mxCell id="wyoGJI5phzZIUJ4gvNs1-31" value="No" style="text;html=1;align=center;verticalAlign=middle;whiteSpace=wrap;rounded=0;" vertex="1" parent="1">
          <mxGeometry x="800" y="520" width="60" height="30" as="geometry" />
        </mxCell>
        <mxCell id="wyoGJI5phzZIUJ4gvNs1-32" value="Si" style="text;html=1;align=center;verticalAlign=middle;whiteSpace=wrap;rounded=0;" vertex="1" parent="1">
          <mxGeometry x="1100" y="520" width="60" height="30" as="geometry" />
        </mxCell>
        <mxCell id="wyoGJI5phzZIUJ4gvNs1-41" style="edgeStyle=orthogonalEdgeStyle;rounded=0;orthogonalLoop=1;jettySize=auto;html=1;entryX=0.5;entryY=0;entryDx=0;entryDy=0;" edge="1" parent="1" source="wyoGJI5phzZIUJ4gvNs1-33" target="wyoGJI5phzZIUJ4gvNs1-34">
          <mxGeometry relative="1" as="geometry" />
        </mxCell>
        <mxCell id="wyoGJI5phzZIUJ4gvNs1-49" style="edgeStyle=orthogonalEdgeStyle;rounded=0;orthogonalLoop=1;jettySize=auto;html=1;" edge="1" parent="1" source="wyoGJI5phzZIUJ4gvNs1-33" target="wyoGJI5phzZIUJ4gvNs1-40">
          <mxGeometry relative="1" as="geometry" />
        </mxCell>
        <mxCell id="wyoGJI5phzZIUJ4gvNs1-33" value="INICIO DE ONBOARDING" style="rounded=0;whiteSpace=wrap;html=1;" vertex="1" parent="1">
          <mxGeometry x="930" y="760" width="120" height="60" as="geometry" />
        </mxCell>
        <mxCell id="wyoGJI5phzZIUJ4gvNs1-42" style="edgeStyle=orthogonalEdgeStyle;rounded=0;orthogonalLoop=1;jettySize=auto;html=1;entryX=0.5;entryY=0;entryDx=0;entryDy=0;" edge="1" parent="1" source="wyoGJI5phzZIUJ4gvNs1-34" target="wyoGJI5phzZIUJ4gvNs1-35">
          <mxGeometry relative="1" as="geometry" />
        </mxCell>
        <mxCell id="wyoGJI5phzZIUJ4gvNs1-34" value="Formulario Etapa 1: Info personal" style="rounded=0;whiteSpace=wrap;html=1;" vertex="1" parent="1">
          <mxGeometry x="750" y="880" width="120" height="60" as="geometry" />
        </mxCell>
        <mxCell id="wyoGJI5phzZIUJ4gvNs1-43" style="edgeStyle=orthogonalEdgeStyle;rounded=0;orthogonalLoop=1;jettySize=auto;html=1;entryX=0.5;entryY=0;entryDx=0;entryDy=0;" edge="1" parent="1" source="wyoGJI5phzZIUJ4gvNs1-35" target="wyoGJI5phzZIUJ4gvNs1-36">
          <mxGeometry relative="1" as="geometry" />
        </mxCell>
        <mxCell id="wyoGJI5phzZIUJ4gvNs1-35" value="Guardar datos + Registrar en auditoría" style="rounded=0;whiteSpace=wrap;html=1;" vertex="1" parent="1">
          <mxGeometry x="750" y="1010" width="120" height="60" as="geometry" />
        </mxCell>
        <mxCell id="wyoGJI5phzZIUJ4gvNs1-44" style="edgeStyle=orthogonalEdgeStyle;rounded=0;orthogonalLoop=1;jettySize=auto;html=1;entryX=0.5;entryY=0;entryDx=0;entryDy=0;" edge="1" parent="1" source="wyoGJI5phzZIUJ4gvNs1-36" target="wyoGJI5phzZIUJ4gvNs1-37">
          <mxGeometry relative="1" as="geometry" />
        </mxCell>
        <mxCell id="wyoGJI5phzZIUJ4gvNs1-36" value="Formulario Etapa 2: Dirección" style="rounded=0;whiteSpace=wrap;html=1;" vertex="1" parent="1">
          <mxGeometry x="750" y="1140" width="120" height="60" as="geometry" />
        </mxCell>
        <mxCell id="wyoGJI5phzZIUJ4gvNs1-45" style="edgeStyle=orthogonalEdgeStyle;rounded=0;orthogonalLoop=1;jettySize=auto;html=1;entryX=0.5;entryY=0;entryDx=0;entryDy=0;" edge="1" parent="1" source="wyoGJI5phzZIUJ4gvNs1-37" target="wyoGJI5phzZIUJ4gvNs1-39">
          <mxGeometry relative="1" as="geometry" />
        </mxCell>
        <mxCell id="wyoGJI5phzZIUJ4gvNs1-37" value="Guardar datos + Registrar en auditoría" style="rounded=0;whiteSpace=wrap;html=1;" vertex="1" parent="1">
          <mxGeometry x="750" y="1260" width="120" height="60" as="geometry" />
        </mxCell>
        <mxCell id="wyoGJI5phzZIUJ4gvNs1-48" style="edgeStyle=orthogonalEdgeStyle;rounded=0;orthogonalLoop=1;jettySize=auto;html=1;entryX=0;entryY=0.5;entryDx=0;entryDy=0;" edge="1" parent="1" source="wyoGJI5phzZIUJ4gvNs1-38" target="wyoGJI5phzZIUJ4gvNs1-40">
          <mxGeometry relative="1" as="geometry" />
        </mxCell>
        <mxCell id="wyoGJI5phzZIUJ4gvNs1-38" value="Guardar datos + Registrar en auditoría" style="rounded=0;whiteSpace=wrap;html=1;" vertex="1" parent="1">
          <mxGeometry x="750" y="1510" width="120" height="60" as="geometry" />
        </mxCell>
        <mxCell id="wyoGJI5phzZIUJ4gvNs1-46" style="edgeStyle=orthogonalEdgeStyle;rounded=0;orthogonalLoop=1;jettySize=auto;html=1;entryX=0.5;entryY=0;entryDx=0;entryDy=0;" edge="1" parent="1" source="wyoGJI5phzZIUJ4gvNs1-39" target="wyoGJI5phzZIUJ4gvNs1-38">
          <mxGeometry relative="1" as="geometry" />
        </mxCell>
        <mxCell id="wyoGJI5phzZIUJ4gvNs1-39" value="Formulario Etapa 3: Documentos" style="rounded=0;whiteSpace=wrap;html=1;" vertex="1" parent="1">
          <mxGeometry x="750" y="1380" width="120" height="60" as="geometry" />
        </mxCell>
        <mxCell id="wyoGJI5phzZIUJ4gvNs1-51" style="edgeStyle=orthogonalEdgeStyle;rounded=0;orthogonalLoop=1;jettySize=auto;html=1;entryX=0;entryY=0.5;entryDx=0;entryDy=0;" edge="1" parent="1" target="wyoGJI5phzZIUJ4gvNs1-20">
          <mxGeometry relative="1" as="geometry">
            <mxPoint x="1170" y="930" as="targetPoint" />
            <mxPoint x="1100" y="1540" as="sourcePoint" />
          </mxGeometry>
        </mxCell>
        <mxCell id="wyoGJI5phzZIUJ4gvNs1-40" value="Onboarding Completado" style="rounded=0;whiteSpace=wrap;html=1;" vertex="1" parent="1">
          <mxGeometry x="1000" y="1510" width="120" height="60" as="geometry" />
        </mxCell>
        <mxCell id="wyoGJI5phzZIUJ4gvNs1-52" value="FIN" style="ellipse;whiteSpace=wrap;html=1;" vertex="1" parent="1">
          <mxGeometry x="1310" y="1180" width="120" height="80" as="geometry" />
        </mxCell>
      </root>
    </mxGraphModel>
  </diagram>
</mxfile>
